<svg id="Layer_1" data-name="Layer 1" xmlns="http://www.w3.org/2000/svg" xmlns:xlink="http://www.w3.org/1999/xlink" viewBox="0 0 288 290"><defs><clipPath id="clip-path"><rect y="1" width="290" height="289" style="fill:none"/></clipPath></defs><g style="clip-path:url(#clip-path)"><path d="M266.852,293.649a177.157,177.157,0,0,0-248.684,0Z" style="fill:#fff"/><circle cx="143.883" cy="135.542" r="100.154" style="fill:#fff"/><path d="M143.833,246.71a195.234,195.234,0,0,1,127.794,47.331H16.04A195.231,195.231,0,0,1,143.833,246.71m0-3.887a199.371,199.371,0,0,0-137.88,55.1H281.714a199.371,199.371,0,0,0-137.881-55.1Z" style="fill:#17babc"/><path d="M281.715,300.778H5.952a2.85,2.85,0,0,1-1.964-4.915,202.905,202.905,0,0,1,279.691,0,2.85,2.85,0,0,1-1.964,4.915Zm-7.435-5.7h.114l-.085-.074-.011.027A.38.38,0,0,1,274.28,295.078Zm-261.007,0h.112l-.017-.047-.01-.027Zm10.7-3.887H263.7a193.367,193.367,0,0,0-239.725,0Z" style="fill:#17babc"/><path d="M144.276,34.809A98.2,98.2,0,1,1,74.838,63.571a97.561,97.561,0,0,1,69.438-28.762m0-3.887A102.088,102.088,0,1,0,246.363,133.009,102.087,102.087,0,0,0,144.276,30.922Z" style="fill:#17babc"/><path d="M144.276,237.946A104.937,104.937,0,1,1,249.213,133.009,105.056,105.056,0,0,1,144.276,237.946Zm0-200.287A95.35,95.35,0,1,0,211.7,65.586,94.731,94.731,0,0,0,144.276,37.659Z" style="fill:#17babc"/><ellipse cx="103.74" cy="142.749" rx="13.604" ry="7.219" transform="translate(-54.967 219.894) rotate(-79.917)" style="fill:#17babc"/><path d="M102.072,159.057a6.9,6.9,0,0,1-1.212-.108c-2.987-.531-5.31-2.927-6.542-6.748a25.746,25.746,0,0,1,3.837-21.573c2.473-3.161,5.482-4.608,8.466-4.079,5.651,1,8.674,8.727,7.032,17.962a23.828,23.828,0,0,1-4.327,10.359C107.188,157.6,104.65,159.057,102.072,159.057Zm3.372-26.912c-.759,0-1.832.758-2.8,1.995a20.146,20.146,0,0,0-2.9,16.312c.521,1.617,1.351,2.75,2.114,2.886s1.933-.642,2.98-1.98a18.344,18.344,0,0,0,3.2-7.844c1.131-6.366-.706-11.049-2.419-11.353A1.036,1.036,0,0,0,105.444,132.145Z" style="fill:#17babc"/><ellipse cx="178.148" cy="142.749" rx="13.604" ry="7.219" transform="translate(6.414 293.153) rotate(-79.917)" style="fill:#17babc"/><path d="M176.479,159.057a6.9,6.9,0,0,1-1.212-.108c-2.987-.531-5.31-2.928-6.541-6.748a25.76,25.76,0,0,1,3.836-21.573c2.475-3.162,5.486-4.608,8.467-4.079s5.31,2.928,6.541,6.748a25.76,25.76,0,0,1-3.836,21.573C181.6,157.6,179.058,159.057,176.479,159.057Zm3.373-26.912c-.76,0-1.833.758-2.8,1.995a20.151,20.151,0,0,0-2.9,16.312c.521,1.618,1.352,2.75,2.114,2.886.78.135,1.935-.643,2.981-1.98a18.369,18.369,0,0,0,3.2-7.844h0a18.364,18.364,0,0,0-.3-8.467c-.521-1.617-1.352-2.75-2.114-2.885A1.057,1.057,0,0,0,179.852,132.145Z" style="fill:#17babc"/><path d="M137.762,196.874c-.157,0-.313,0-.471,0-17.564-.244-19.409-13.514-19.426-13.647a1.944,1.944,0,0,1,3.857-.489c.06.436,1.562,10.054,15.623,10.25A27.635,27.635,0,0,0,159.927,181.9a1.944,1.944,0,0,1,3.227,2.167A31.589,31.589,0,0,1,137.762,196.874Z" style="fill:#17babc"/><path d="M137.761,199.724l-.51,0c-20-.279-22.194-15.985-22.213-16.143a4.793,4.793,0,0,1,9.51-1.208c.042.28,1.275,7.6,12.837,7.765a24.427,24.427,0,0,0,20.18-9.83,4.793,4.793,0,0,1,7.958,5.345A34.636,34.636,0,0,1,137.761,199.724Zm-18.863-16.6,0,.022Z" style="fill:#17babc"/><path d="M71.06,96.435a104.464,104.464,0,0,0,95.932-63.094A102.2,102.2,0,0,0,50.317,94.372,104.931,104.931,0,0,0,71.06,96.435Z" style="fill:#17babc"/><path d="M71.06,99.285a108.129,108.129,0,0,1-21.306-2.119l-3.38-.681,1.3-3.192A105.048,105.048,0,0,1,167.607,30.559l3.367.745-1.367,3.167A107.259,107.259,0,0,1,71.06,99.285ZM54.346,92.214A102.556,102.556,0,0,0,71.06,93.586a101.555,101.555,0,0,0,91.862-58.162,99.947,99.947,0,0,0-18.091-1.652A98.9,98.9,0,0,0,54.346,92.214Z" style="fill:#17babc"/><path d="M239.407,95.905a102.279,102.279,0,0,0-72.77-62.52,58.158,58.158,0,0,0,72.77,62.52Z" style="fill:#17babc"/><path d="M224.416,100.71A61.045,61.045,0,0,1,163.44,39.735a61.912,61.912,0,0,1,.364-6.658l.345-3.168,3.109.694a104.737,104.737,0,0,1,74.8,64.266l1.158,2.97-3.081.82A61.149,61.149,0,0,1,224.416,100.71Zm-55.2-63.774c-.047.937-.071,1.873-.071,2.8A55.31,55.31,0,0,0,235.505,93.9,99.017,99.017,0,0,0,169.211,36.936Z" style="fill:#17babc"/><path d="M169.127,285.1a1.886,1.886,0,0,1-.492-.066,1.866,1.866,0,0,1-1.3-1.291c-.05-.174-5.19-17.588-19.955-21.079a1.865,1.865,0,0,1,.138-3.658c9.814-1.55,16.866-6.05,21.56-13.757a1.865,1.865,0,0,1,1.929-.865c1.294.237,12.709,2.331,15.1,2.928a1.867,1.867,0,0,1,1.367,2.223,110.121,110.121,0,0,1-4.14,13.308c-3.725,9.812-8.071,17.127-12.916,21.742A1.864,1.864,0,0,1,169.127,285.1Zm-14.894-23.844c9.05,4.687,13.722,13.765,15.63,18.483,7.643-8.95,12.127-24.011,13.508-29.206-2.9-.595-8.083-1.567-11.8-2.252A31.706,31.706,0,0,1,154.233,261.254Z" style="fill:#17babc"/><path d="M169.128,287.948a4.719,4.719,0,0,1-4.538-3.435c-.04-.134-4.856-16-17.867-19.078a4.715,4.715,0,0,1,.353-9.246c8.932-1.411,15.333-5.475,19.566-12.425a4.723,4.723,0,0,1,4.887-2.183c2.117.387,12.856,2.362,15.265,2.965a4.742,4.742,0,0,1,3.454,5.619,112.06,112.06,0,0,1-4.254,13.687c-3.876,10.213-8.457,17.883-13.614,22.8A4.7,4.7,0,0,1,169.128,287.948Zm-8.748-26.1a39.121,39.121,0,0,1,10.047,12.366c4.644-7.066,7.8-16.243,9.362-21.49-2.377-.461-5.066-.966-6.934-1.312A33.986,33.986,0,0,1,160.38,261.851Z" style="fill:#17babc"/><path d="M115.471,286.468a1.492,1.492,0,0,1-.776-.234c-8.353-5.255-17.677-27.8-17.052-35.335.2-2.393,1.352-3.17,2.021-3.421,3.724-1.393,16.965-3.16,17.527-3.277a1.587,1.587,0,0,1,1.692.843c4.138,7.314,10.325,11.118,17.895,12.874a2.018,2.018,0,0,1-.05,3.819c-15.239,3.127-19.557,23.034-19.6,23.234a1.915,1.915,0,0,1-.952,1.327A1.489,1.489,0,0,1,115.471,286.468Zm-14.478-35.4c-.251,1.439.664,6.972,4.17,15.109,2.929,6.8,6.384,12.361,9.4,15.247,1.558-5.2,5.988-16.574,15.977-21.572A31.346,31.346,0,0,1,116.7,247.26C111.941,248.266,103.908,250.062,100.993,251.066Z" style="fill:#17babc"/><path d="M115.49,289.318h-.067a4.365,4.365,0,0,1-2.242-.669c-9.418-5.926-19.085-29.472-18.378-37.985.341-4.107,2.814-5.462,3.862-5.854,3-1.123,10.585-2.321,16.86-3.239.594-.087,1-.145,1.135-.169a4.427,4.427,0,0,1,4.7,2.238c3.453,6.107,8.556,9.761,16.058,11.5a4.858,4.858,0,0,1-.123,9.388c-13.3,2.729-17.342,20.85-17.381,21.033a4.73,4.73,0,0,1-2.429,3.266A4.355,4.355,0,0,1,115.49,289.318ZM103.961,253.15a52.893,52.893,0,0,0,3.819,11.9,62.9,62.9,0,0,0,5.783,10.723c2.034-4.885,5.589-11.273,11.387-15.75a34.431,34.431,0,0,1-9.578-9.561C111.371,251.324,106.852,252.361,103.961,253.15Z" style="fill:#17babc"/><path d="M174.18,246.02a208.494,208.494,0,0,0-62.789.664,35.875,35.875,0,0,0,62.789-.664Z" style="fill:#17babc"/><circle cx="197.488" cy="36.485" r="30.635" style="fill:#17babc"/><path d="M197.488,69.97a33.485,33.485,0,1,1,33.486-33.485A33.523,33.523,0,0,1,197.488,69.97Zm0-61.27a27.785,27.785,0,1,0,27.786,27.785A27.817,27.817,0,0,0,197.488,8.7Z" style="fill:#17babc"/><path d="M101.367,134.941q-.347,0-.708-.028c-3.107-.25-6.037-2.069-8.709-5.409a1.944,1.944,0,0,1,3.035-2.429c1.957,2.446,3.952,3.778,5.929,3.959a5.306,5.306,0,0,0,3.732-1.127,1.944,1.944,0,0,1,2.595,2.894A9.337,9.337,0,0,1,101.367,134.941Z" style="fill:#17babc"/><path d="M101.367,137.791c-.306,0-.619-.012-.938-.038-3.919-.314-7.521-2.49-10.7-6.469a4.793,4.793,0,1,1,7.486-5.989c1.413,1.766,2.82,2.8,3.962,2.9a2.438,2.438,0,0,0,1.64-.469,4.793,4.793,0,0,1,6.341,7.187A12.242,12.242,0,0,1,101.367,137.791Z" style="fill:#17babc"/><path d="M175.775,134.941q-.346,0-.709-.028c-3.106-.25-6.036-2.069-8.708-5.409a1.944,1.944,0,1,1,3.035-2.429c1.957,2.446,3.952,3.778,5.929,3.959a5.309,5.309,0,0,0,3.732-1.127,1.943,1.943,0,0,1,2.594,2.894A9.329,9.329,0,0,1,175.775,134.941Z" style="fill:#17babc"/><path d="M175.775,137.791c-.306,0-.618-.012-.938-.038-3.919-.314-7.522-2.49-10.7-6.47a4.793,4.793,0,0,1,7.485-5.989c1.414,1.768,2.821,2.8,3.963,2.9a2.508,2.508,0,0,0,1.641-.47,4.793,4.793,0,0,1,6.339,7.189A12.249,12.249,0,0,1,175.775,137.791Zm5.148-5.733,0,0Z" style="fill:#7986cb"/></g></svg>