<svg id="Layer_1" data-name="Layer 1" xmlns="http://www.w3.org/2000/svg" xmlns:xlink="http://www.w3.org/1999/xlink" width="400" height="400" viewBox="0 0 400 400"><defs><style>.cls-1{fill:none;}.cls-2{clip-path:url(#clip-path);}.cls-3{fill:#fff;}.cls-4{fill:#7986cb;}</style><clipPath id="clip-path"><rect class="cls-1" x="29.6744" y="60.7095" width="340.3256" height="339.152"/></clipPath></defs><g class="cls-2"><path class="cls-3" d="M342.8355,404.1439a207.9009,207.9009,0,0,0-291.8406,0Z"/><circle class="cls-3" cx="198.5266" cy="218.6" r="117.5344"/><path class="cls-4" d="M198.468,349.0592a229.1139,229.1139,0,0,1,149.97,55.5446H48.4977a229.1138,229.1138,0,0,1,149.97-55.5446m0-4.5615A233.97,233.97,0,0,0,36.66,409.1653H360.2761A233.97,233.97,0,0,0,198.468,344.4977Z"/><path class="cls-4" d="M360.2767,412.51H36.66a3.3447,3.3447,0,0,1-2.3052-5.7678,238.116,238.116,0,0,1,328.2279,0,3.345,3.345,0,0,1-2.3058,5.7678Zm-8.7242-6.6888h.1333l-.0993-.0875-.0131.0326C351.5669,405.7843,351.56,405.8026,351.5525,405.8209Zm-306.3018,0h.132l-.02-.0549-.0124-.0326Zm12.5546-4.562H339.1312a226.9228,226.9228,0,0,0-281.3259,0Z"/><path class="cls-4" d="M198.9875,100.3856a115.2417,115.2417,0,1,1-81.4882,33.7535,114.487,114.487,0,0,1,81.4882-33.7535m0-4.5615A119.8032,119.8032,0,1,0,318.7907,215.6272,119.8032,119.8032,0,0,0,198.9875,95.8241Z"/><path class="cls-4" d="M198.9876,338.7747A123.1476,123.1476,0,1,1,322.1348,215.6274,123.2875,123.2875,0,0,1,198.9876,338.7747Zm0-235.0444a111.8959,111.8959,0,1,0,79.1239,32.7732A111.17,111.17,0,0,0,198.9876,103.73Z"/><ellipse class="cls-4" cx="151.4175" cy="227.0568" rx="15.9653" ry="8.4714" transform="translate(-98.6426 336.3821) rotate(-79.9166)"/><path class="cls-4" d="M149.46,246.1948a8.0528,8.0528,0,0,1-1.4226-.1268c-3.5051-.6231-6.2316-3.4345-7.6771-7.9188a30.2207,30.2207,0,0,1,4.5025-25.3162c2.9022-3.71,6.4334-5.4085,9.9359-4.7873,6.632,1.18,10.1795,10.2416,8.2526,21.0795a27.9712,27.9712,0,0,1-5.078,12.1562C155.4632,244.49,152.4853,246.1948,149.46,246.1948Zm3.9572-31.5818c-.891,0-2.15.889-3.2863,2.3411a23.6452,23.6452,0,0,0-3.4039,19.1428c.6114,1.8975,1.5854,3.2275,2.4809,3.3868.8942.1568,2.2686-.7531,3.4973-2.3241a21.5289,21.5289,0,0,0,3.7605-9.2049c1.3279-7.47-.8283-12.9661-2.8382-13.3234A1.2189,1.2189,0,0,0,153.4168,214.613Z"/><ellipse class="cls-4" cx="238.7377" cy="227.0568" rx="15.9653" ry="8.4714" transform="translate(-26.6106 422.3535) rotate(-79.9166)"/><path class="cls-4" d="M236.7793,246.1948a8.0469,8.0469,0,0,1-1.4226-.1268c-3.5051-.6231-6.2316-3.4358-7.6765-7.9188a30.23,30.23,0,0,1,4.5019-25.3162c2.9041-3.7108,6.438-5.4085,9.9365-4.7873,3.5051.6231,6.2316,3.4358,7.6765,7.9194a30.2311,30.2311,0,0,1-4.5019,25.3163C242.7836,244.49,239.805,246.1948,236.7793,246.1948Zm3.9585-31.5818c-.8923,0-2.1517.889-3.287,2.3411a23.6424,23.6424,0,0,0-3.4045,19.1428c.6114,1.8982,1.586,3.2275,2.4809,3.3868.9145.1581,2.27-.7551,3.4973-2.3241a21.5491,21.5491,0,0,0,3.7611-9.2049v-.0007a21.5371,21.5371,0,0,0-.3566-9.9372c-.6114-1.8975-1.586-3.2261-2.4809-3.3855A1.23,1.23,0,0,0,240.7378,214.613Z"/><path class="cls-4" d="M191.3428,290.5751c-.1836,0-.3666-.0013-.5521-.0038-20.6117-.2864-22.7776-15.8587-22.797-16.0159a2.2808,2.2808,0,0,1,4.5255-.5733c.0707.5116,1.8341,11.7989,18.3348,12.0283a32.4315,32.4315,0,0,0,26.5-13.009,2.2808,2.2808,0,0,1,3.787,2.543A37.0714,37.0714,0,0,1,191.3428,290.5751Z"/><path class="cls-4" d="M191.3425,293.9192l-.599-.0039c-23.47-.3266-26.0452-18.7588-26.0681-18.9443a5.6251,5.6251,0,0,1,11.1606-1.4174c.05.3292,1.4965,8.924,15.0642,9.1122a28.6584,28.6584,0,0,0,23.682-11.5356,5.6254,5.6254,0,0,1,9.3395,6.2734A40.6493,40.6493,0,0,1,191.3425,293.9192ZM169.206,274.438l.0033.0248Z"/><path class="cls-4" d="M113.0664,172.7065a122.593,122.593,0,0,0,112.579-74.0432A119.9348,119.9348,0,0,0,88.7234,170.285,123.1228,123.1228,0,0,0,113.0664,172.7065Z"/><path class="cls-4" d="M113.0664,176.0511a126.8476,126.8476,0,0,1-25.0034-2.4874l-3.9675-.8,1.5324-3.7455A123.2772,123.2772,0,0,1,226.3673,95.398l3.9518.8746-1.6042,3.7161A125.8721,125.8721,0,0,1,113.0664,176.0511Zm-19.6151-8.2983a120.4139,120.4139,0,0,0,19.6151,1.6095A119.1794,119.1794,0,0,0,220.87,101.107a117.2952,117.2952,0,0,0-21.2311-1.9387A116.06,116.06,0,0,0,93.4513,167.7528Z"/><path class="cls-4" d="M310.6272,172.0839a120.027,120.027,0,0,0-85.3983-73.3694,68.9534,68.9534,0,0,0-.4068,7.4523,68.2539,68.2539,0,0,0,85.8051,65.9171Z"/><path class="cls-4" d="M293.0346,177.7233a71.6385,71.6385,0,0,1-71.5572-71.5566,72.5006,72.5006,0,0,1,.4272-7.8143l.405-3.7173,3.6488.8152a122.91,122.91,0,0,1,87.7841,75.4176l1.36,3.4855-3.6161.9628A71.765,71.765,0,0,1,293.0346,177.7233ZM228.25,102.8818c-.0549,1.1-.0836,2.1973-.0836,3.2849a64.9082,64.9082,0,0,0,77.8815,63.5581A116.1968,116.1968,0,0,0,228.25,102.8818Z"/><path class="cls-4" d="M234.0806,348.25a244.6873,244.6873,0,0,0-73.6843.7787,42.1,42.1,0,0,0,73.6843-.7787Z"/><circle class="cls-4" cx="261.4343" cy="102.3523" r="35.9514"/><path class="cls-4" d="M261.4339,141.6481a39.2958,39.2958,0,1,1,39.2967-39.2961A39.34,39.34,0,0,1,261.4339,141.6481Zm0-71.9027a32.607,32.607,0,1,0,32.6079,32.6066A32.6439,32.6439,0,0,0,261.4339,69.7454Z"/><path class="cls-4" d="M148.6318,217.8943c-.2711,0-.5479-.01-.8308-.0334-3.6454-.2924-7.0841-2.4281-10.22-6.3478a2.2807,2.2807,0,0,1,3.5618-2.85c2.2967,2.8707,4.6375,4.4336,6.9578,4.6452a6.2213,6.2213,0,0,0,4.38-1.3224,2.2809,2.2809,0,0,1,3.0447,3.3967A10.9559,10.9559,0,0,1,148.6318,217.8943Z"/><path class="cls-4" d="M148.632,221.2384c-.3592,0-.7257-.0137-1.1006-.0444-4.5986-.3684-8.8261-2.9224-12.5618-7.5915a5.6253,5.6253,0,0,1,8.785-7.0285c1.6584,2.0726,3.31,3.2817,4.65,3.4039a2.86,2.86,0,0,0,1.9244-.5513,5.6249,5.6249,0,0,1,7.4419,8.4348A14.37,14.37,0,0,1,148.632,221.2384Z"/><path class="cls-4" d="M235.9523,217.8943c-.2711,0-.5479-.01-.8311-.0334-3.6457-.2924-7.084-2.4281-10.22-6.3478a2.281,2.281,0,0,1,3.5624-2.85c2.296,2.8707,4.6373,4.4336,6.9575,4.6452a6.23,6.23,0,0,0,4.38-1.3224,2.2808,2.2808,0,0,1,3.0444,3.3967A10.9552,10.9552,0,0,1,235.9523,217.8943Z"/><path class="cls-4" d="M235.9524,221.2384c-.3593,0-.7251-.0137-1.1-.0444-4.6-.3684-8.8274-2.9224-12.5624-7.5922a5.625,5.625,0,0,1,8.7843-7.0284c1.6591,2.0739,3.31,3.2823,4.6508,3.4045a2.9456,2.9456,0,0,0,1.9256-.552,5.6246,5.6246,0,0,1,7.4387,8.4368A14.37,14.37,0,0,1,235.9524,221.2384Zm6.0421-6.728-.0026.0033Z"/></g></svg>